<svg xmlns="http://www.w3.org/2000/svg" xmlns:xlink="http://www.w3.org/1999/xlink" xmlns:serif="http://www.serif.com/" viewBox="0 0 32 40" version="1.1" xml:space="preserve" style="" x="0px" y="0px" fill-rule="evenodd" clip-rule="evenodd" stroke-linejoin="round" stroke-miterlimit="2"><g transform="matrix(1,0,0,1,-336,-144)"><path d="M363,149C363,148.204 362.684,147.441 362.121,146.879C361.559,146.316 360.796,146 360,146C356.168,146 347.832,146 344,146C343.204,146 342.441,146.316 341.879,146.879C341.316,147.441 341,148.204 341,149C341,153.544 341,164.724 341,170.839C341,171.992 341.661,173.043 342.7,173.543C343.74,174.042 344.974,173.902 345.874,173.181L351.375,168.78C351.741,168.488 352.259,168.488 352.625,168.78L358.126,173.181C359.026,173.902 360.26,174.042 361.3,173.543C362.339,173.043 363,171.992 363,170.839L363,149ZM361,149L361,170.839C361,171.223 360.78,171.574 360.433,171.74C360.087,171.907 359.676,171.86 359.375,171.62C359.375,171.62 353.874,167.219 353.874,167.219C352.778,166.342 351.222,166.342 350.126,167.219C350.126,167.219 344.625,171.62 344.625,171.62C344.324,171.86 343.913,171.907 343.567,171.74C343.22,171.574 343,171.223 343,170.839C343,170.839 343,149 343,149C343,148.735 343.105,148.48 343.293,148.293C343.48,148.105 343.735,148 344,148L360,148C360.265,148 360.52,148.105 360.707,148.293C360.895,148.48 361,148.735 361,149Z"/></g><text x="0" y="47" fill="#000000" font-size="5px" font-weight="bold" font-family="'Helvetica Neue', Helvetica, Arial-Unicode, Arial, Sans-serif">Created by Yudhi Restu Pebriyanto</text><text x="0" y="52" fill="#000000" font-size="5px" font-weight="bold" font-family="'Helvetica Neue', Helvetica, Arial-Unicode, Arial, Sans-serif">from the Noun Project</text></svg>